Coordinates
version=1
nRows=21
nColumns=34
inDegrees=no

Units are S.I. units (second, meters, Newtons, ...)
If the header above contains a line with 'inDegrees', this indicates whether rotational values are in degrees (yes) or radians (no).

endheader
time	pelvis_tilt	pelvis_list	pelvis_rotation	pelvis_tx	pelvis_ty	pelvis_tz	hip_flexion_r	hip_adduction_r	hip_rotation_r	knee_angle_r	ankle_angle_r	subtalar_angle_r	mtp_angle_r	hip_flexion_l	hip_adduction_l	hip_rotation_l	knee_angle_l	ankle_angle_l	subtalar_angle_l	mtp_angle_l	lumbar_extension	lumbar_bending	lumbar_rotation	arm_flex_r	arm_add_r	arm_rot_r	elbow_flex_r	pro_sup_r	arm_flex_l	arm_add_l	arm_rot_l	elbow_flex_l	pro_sup_l
2.14	-0.0526743	-0.0168911	-0.00182017	-0.12612	1.52684	-0.547568	0.061723	-0.127234	-0.323132	0.136636	-0.41192	0.265157	-0.019656	0.0894663	-0.191996	-0.338917	0.265645	-0.644288	0.0208127	-0.019656	-0.289205	-0.0326037	0.019304	5.31262	-0.497016	5.51566	1.9278	2.08712	-0.575799	-0.771628	-0.433864	1.9225	1.99859
2.15	-0.0440011	-0.0162097	-0.00159812	-0.124956	1.53146	-0.546906	0.0503497	-0.127696	-0.346934	0.129787	-0.388452	0.253991	-0.019656	0.0788608	-0.191811	-0.351117	0.261333	-0.632285	0.00127703	-0.019656	-0.293064	-0.0356428	0.0194151	5.32983	-0.479603	5.56144	1.88024	2.09193	-0.559146	-0.747446	-0.396212	1.89152	2.00608
2.16	-0.0358623	-0.015677	-0.00240991	-0.123827	1.53499	-0.546218	0.0403494	-0.128362	-0.36913	0.124462	-0.364602	0.243017	-0.019656	0.0680794	-0.19173	-0.362224	0.256042	-0.619881	-0.0158295	-0.019656	-0.296491	-0.0383216	0.019854	5.34589	-0.464467	5.60363	1.83734	2.09234	-0.548879	-0.72455	-0.366146	1.86386	2.00947
2.17	-0.0281354	-0.0152067	-0.00397869	-0.122748	1.53744	-0.545525	0.0316515	-0.129357	-0.38859	0.120906	-0.34081	0.232012	-0.019656	0.057322	-0.191611	-0.371566	0.250317	-0.606453	-0.0301341	-0.019656	-0.299643	-0.0407148	0.0204129	5.36115	-0.451095	5.64259	1.79934	2.08962	-0.54317	-0.702323	-0.342028	1.83927	2.00985
2.18	-0.0206544	-0.0147564	-0.00601522	-0.121727	1.53885	-0.54485	0.0240512	-0.130747	-0.404336	0.119179	-0.317675	0.220591	-0.019656	0.0467087	-0.191382	-0.378624	0.244643	-0.591569	-0.0416217	-0.019656	-0.302693	-0.0428416	0.0209067	5.37582	-0.439045	5.67873	1.76633	2.08516	-0.540127	-0.68044	-0.322084	1.81757	2.00837
2.19	-0.0132424	-0.0143216	-0.00826271	-0.120768	1.53924	-0.544214	0.0172811	-0.132547	-0.415653	0.11922	-0.295843	0.208332	-0.019656	0.0362948	-0.191034	-0.383029	0.239434	-0.575026	-0.0505576	-0.019656	-0.3058	-0.0446824	0.0211815	5.39006	-0.427976	5.71241	1.73827	2.08028	-0.538147	-0.658812	-0.304717	1.79862	2.00597
2.2	-0.00574643	-0.0139163	-0.0105399	-0.119871	1.53862	-0.543632	0.0110874	-0.134745	-0.422178	0.120922	-0.275887	0.194869	-0.019656	0.026091	-0.190599	-0.384593	0.235016	-0.556854	-0.0573713	-0.019656	-0.309089	-0.0462086	0.0211419	5.40394	-0.417645	5.74396	1.71501	2.07607	-0.536058	-0.637521	-0.288649	1.78232	2.00333
2.21	0.00193887	-0.0135555	-0.0127596	-0.119031	1.537	-0.543109	0.00529029	-0.137325	-0.423956	0.124205	-0.25821	0.179967	-0.019656	0.0160877	-0.190133	-0.383342	0.231634	-0.537284	-0.0625355	-0.019656	-0.312619	-0.0474077	0.0207699	5.41753	-0.407883	5.7736	1.6963	2.07315	-0.533127	-0.616742	-0.272965	1.76854	2.00093
2.22	0.00985428	-0.0132491	-0.014907	-0.118244	1.53439	-0.542644	-0.000181248	-0.140275	-0.42144	0.129054	-0.242989	0.16355	-0.019656	0.00629288	-0.189703	-0.379495	0.229465	-0.516679	-0.0664863	-0.019656	-0.316385	-0.0482877	0.0201109	5.43087	-0.398568	5.80145	1.68183	2.07167	-0.528983	-0.596686	-0.257087	1.75711	1.9991
2.23	0.0179742	-0.013005	-0.0169993	-0.117506	1.53079	-0.542229	-0.00528586	-0.143582	-0.415409	0.135527	-0.230169	0.145659	-0.019656	-0.00323525	-0.189382	-0.373419	0.228655	-0.495459	-0.0696063	-0.019656	-0.32032	-0.0488661	0.0192383	5.44405	-0.389603	5.82755	1.67127	2.07151	-0.523509	-0.577553	-0.240718	1.74778	1.99815
2.24	0.0262238	-0.0128321	-0.0190591	-0.116816	1.5262	-0.541856	-0.00989735	-0.147223	-0.406792	0.143733	-0.219504	0.126405	-0.019656	-0.0123851	-0.189249	-0.365567	0.229332	-0.474014	-0.072242	-0.019656	-0.324328	-0.0491622	0.0182238	5.45715	-0.380904	5.85186	1.66424	2.07239	-0.516742	-0.559504	-0.223781	1.74023	1.99837
2.25	0.0345078	-0.0127416	-0.0211101	-0.116179	1.5206	-0.541514	-0.0138482	-0.151153	-0.396485	0.153792	-0.210624	0.105924	-0.019656	-0.0210153	-0.18938	-0.356446	0.231615	-0.452649	-0.0747192	-0.019656	-0.328316	-0.0491964	0.0171234	5.47032	-0.372387	5.87433	1.66033	2.07405	-0.508793	-0.542654	-0.20635	1.73417	2.00002
2.26	0.0427341	-0.0127489	-0.0231742	-0.115603	1.51399	-0.541189	-0.0169696	-0.155307	-0.385193	0.165799	-0.20308	0.0843909	-0.019656	-0.0289791	-0.189845	-0.346581	0.235611	-0.431539	-0.0773361	-0.019656	-0.332223	-0.0489871	0.0159711	5.48372	-0.363974	5.8949	1.65917	2.07632	-0.499789	-0.527068	-0.188577	1.72929	2.00325
2.27	0.0508207	-0.0128746	-0.0252629	-0.1151	1.50636	-0.540872	-0.0191128	-0.159599	-0.373356	0.179801	-0.196382	0.062056	-0.019656	-0.0361322	-0.190708	-0.336457	0.241409	-0.410726	-0.0803501	-0.019656	-0.336023	-0.048544	0.0147799	5.49753	-0.355597	5.91357	1.6604	2.07902	-0.489825	-0.512775	-0.170626	1.72537	2.00804
2.28	0.0586898	-0.0131415	-0.027371	-0.114686	1.49771	-0.540555	-0.0201501	-0.163926	-0.361147	0.195792	-0.190014	0.0392938	-0.019656	-0.0423278	-0.192014	-0.326476	0.249067	-0.390137	-0.0839616	-0.019656	-0.33972	-0.0478644	0.0135525	5.51193	-0.347207	5.93036	1.66371	2.08188	-0.478935	-0.499776	-0.152607	1.72223	2.01404
2.29	0.0662656	-0.013569	-0.0294834	-0.114381	1.48803	-0.540233	-0.0199739	-0.168187	-0.348507	0.213706	-0.183467	0.0166174	-0.019656	-0.0474223	-0.193795	-0.316935	0.258602	-0.369625	-0.0882908	-0.019656	-0.343335	-0.0469388	0.0123031	5.5271	-0.338775	5.94539	1.66882	2.08462	-0.467077	-0.488061	-0.134556	1.71976	2.02078
2.3	0.0734903	-0.0141694	-0.0315889	-0.114205	1.47733	-0.539904	-0.0185099	-0.172284	-0.335225	0.233431	-0.176287	-0.00534299	-0.019656	-0.051303	-0.19606	-0.308019	0.269968	-0.349042	-0.0933572	-0.019656	-0.34692	-0.04576	0.0110791	5.54317	-0.330295	5.95884	1.67551	2.08701	-0.454123	-0.47762	-0.116427	1.71786	2.02773
2.31	0.0803476	-0.0149472	-0.0336926	-0.114179	1.46559	-0.539568	-0.0157372	-0.176132	-0.321034	0.254808	-0.168169	-0.0259117	-0.019656	-0.0539245	-0.1988	-0.299819	0.283045	-0.328317	-0.0990817	-0.019656	-0.350578	-0.0443311	0.00997515	5.56027	-0.321787	5.9709	1.6836	2.08891	-0.439878	-0.468446	-0.0981046	1.71649	2.03444
2.32	0.0868787	-0.0159004	-0.0358229	-0.114325	1.45283	-0.539224	-0.0116973	-0.179661	-0.305708	0.277651	-0.15904	-0.0444741	-0.019656	-0.0553296	-0.201992	-0.292344	0.29763	-0.307561	-0.10532	-0.019656	-0.354473	-0.0426703	0.00913726	5.57848	-0.313281	5.98184	1.69296	2.09028	-0.424085	-0.460523	-0.0794263	1.71559	2.04056
2.33	0.0931835	-0.0170214	-0.0380313	-0.114666	1.43906	-0.538869	-0.00648713	-0.182824	-0.289141	0.301755	-0.149144	-0.0605925	-0.019656	-0.0556479	-0.205605	-0.285553	0.313444	-0.287148	-0.111919	-0.019656	-0.358827	-0.040813	0.00875363	5.59792	-0.304815	5.99189	1.70348	2.09117	-0.406455	-0.453812	-0.0602038	1.71514	2.04585
2.34	0.0994073	-0.0182992	-0.0403839	-0.115224	1.42429	-0.5385	-0.000237632	-0.185604	-0.271396	0.326918	-0.139084	-0.0741178	-0.019656	-0.0550693	-0.2096	-0.27938	0.330156	-0.26777	-0.118791	-0.019656	-0.363904	-0.0388096	0.0090291	5.61867	-0.296424	6.00134	1.71508	2.09162	-0.38669	-0.448237	-0.0402575	1.71517	2.05018
